<svg width="16" height="16" viewBox="0 0 16 16" fill="none" xmlns="http://www.w3.org/2000/svg">
<path d="M4.66667 5.95876H0.666667C0.489856 5.95876 0.320287 5.88707 0.195262 5.75947C0.070238 5.63187 0 5.4588 0 5.27834V1.19586C0 1.0154 0.070238 0.842332 0.195262 0.71473C0.320287 0.587127 0.489856 0.515441 0.666667 0.515441C0.843478 0.515441 1.01305 0.587127 1.13807 0.71473C1.2631 0.842332 1.33333 1.0154 1.33333 1.19586V3.63599L2.5525 2.39168C4.03934 0.866541 6.05866 0.00630309 8.16667 2.69508e-05H8.21083C10.3009 -0.0054685 12.3089 0.829652 13.8 2.32449C13.9217 2.45161 13.9899 2.62231 13.9899 2.80007C13.9899 2.97783 13.9218 3.14854 13.8001 3.27567C13.6783 3.40281 13.5127 3.47627 13.3385 3.48034C13.1644 3.48442 12.9957 3.41879 12.8683 3.29749C11.6255 2.05239 9.95236 1.35669 8.21083 1.36086H8.17333C6.41682 1.36637 4.73423 2.08308 3.495 3.35362L2.27583 4.59793H4.66667C4.84348 4.59793 5.01305 4.66961 5.13807 4.79722C5.2631 4.92482 5.33333 5.09789 5.33333 5.27834C5.33333 5.4588 5.2631 5.63187 5.13807 5.75947C5.01305 5.88707 4.84348 5.95876 4.66667 5.95876ZM15.3333 10.0412H11.3333C11.1565 10.0412 10.987 10.1129 10.8619 10.2405C10.7369 10.3681 10.6667 10.5412 10.6667 10.7217C10.6667 10.9021 10.7369 11.0752 10.8619 11.2028C10.987 11.3304 11.1565 11.4021 11.3333 11.4021H13.7242L12.505 12.6464C11.266 13.9167 9.58373 14.6334 7.8275 14.6391H7.79C6.04848 14.6433 4.37535 13.9476 3.1325 12.7025C3.07041 12.6377 2.99624 12.5862 2.91437 12.551C2.83249 12.5158 2.74455 12.4977 2.65572 12.4977C2.56689 12.4977 2.47896 12.5158 2.39708 12.551C2.31521 12.5862 2.24105 12.6377 2.17897 12.7026C2.11688 12.7674 2.06811 12.8443 2.03554 12.9286C2.00296 13.013 1.98723 13.1031 1.98927 13.1937C1.9913 13.2844 2.01107 13.3737 2.0474 13.4564C2.08373 13.5392 2.1359 13.6136 2.20083 13.6755C3.69189 15.1703 5.69993 16.0055 7.79 16H7.83333C9.94105 15.9935 11.96 15.1333 13.4467 13.6083L14.6667 12.364V14.8041C14.6667 14.9846 14.7369 15.1577 14.8619 15.2853C14.987 15.4129 15.1565 15.4846 15.3333 15.4846C15.5101 15.4846 15.6797 15.4129 15.8047 15.2853C15.9298 15.1577 16 14.9846 16 14.8041V10.7217C16 10.5412 15.9298 10.3681 15.8047 10.2405C15.6797 10.1129 15.5101 10.0412 15.3333 10.0412Z" fill="black"/>
</svg>
