<svg width="16" height="15" viewBox="0 0 16 15" fill="none" xmlns="http://www.w3.org/2000/svg">
<path d="M15.21 10.8937L13.1657 9.86172C12.6425 9.5996 12.2024 9.19477 11.8954 8.69309C11.5884 8.19141 11.4267 7.61294 11.4286 7.02323V4.90374C11.4286 4.67422 11.3383 4.4541 11.1775 4.29181C11.0168 4.12952 10.7988 4.03834 10.5714 4.03834C9.73818 4.03739 8.93933 3.70277 8.35013 3.1079C7.76094 2.51304 7.42951 1.7065 7.42857 0.865229C7.42854 0.704145 7.38398 0.546268 7.2999 0.409364C7.21583 0.272461 7.09557 0.161967 6.95268 0.0903185C6.80978 0.0186697 6.64991 -0.0112898 6.49107 0.00381187C6.33222 0.0189136 6.18071 0.078477 6.05357 0.175798L0.553571 4.3881L0.532143 4.40469C0.376482 4.53187 0.249042 4.69067 0.158092 4.87079C0.0671411 5.0509 0.0147116 5.24831 0.00420461 5.4502C-0.00630235 5.6521 0.0253479 5.85397 0.0971021 6.04272C0.168856 6.23146 0.279111 6.40287 0.420714 6.54582L8.54071 14.7469C8.62037 14.8272 8.71493 14.8909 8.81898 14.9343C8.92303 14.9778 9.03454 15.0001 9.14714 15H14.5714C14.9503 15 15.3137 14.848 15.5816 14.5776C15.8495 14.3071 16 13.9402 16 13.5577V12.1831C16.0008 11.9151 15.9273 11.6523 15.7876 11.4244C15.648 11.1964 15.4479 11.0126 15.21 10.8937ZM14.2857 13.2692H9.5L1.86286 5.55639L2.78143 4.85253L5.72428 7.82372C5.88531 7.98629 6.1037 8.07763 6.33143 8.07763C6.55915 8.07763 6.77754 7.98629 6.93857 7.82372C7.09959 7.66114 7.19005 7.44065 7.19005 7.21073C7.19005 6.98082 7.09959 6.76032 6.93857 6.59774L4.16071 3.79675L5.96357 2.41645C6.24116 3.25145 6.73561 3.99593 7.39535 4.57221C8.05509 5.14848 8.85592 5.53544 9.71428 5.69269V7.02323C9.71116 7.9346 9.96106 8.82862 10.4356 9.60387C10.9102 10.3791 11.5905 11.0046 12.3993 11.4093L14.2857 12.362V13.2692ZM2.535 12.4038H0.857142C0.629814 12.4038 0.411797 12.3126 0.251051 12.1503C0.0903058 11.9881 0 11.7679 0 11.5384C0 11.3089 0.0903058 11.0888 0.251051 10.9265C0.411797 10.7642 0.629814 10.673 0.857142 10.673H2.535C2.76233 10.673 2.98034 10.7642 3.14109 10.9265C3.30184 11.0888 3.39214 11.3089 3.39214 11.5384C3.39214 11.7679 3.30184 11.9881 3.14109 12.1503C2.98034 12.3126 2.76233 12.4038 2.535 12.4038ZM5.96357 14.1346C5.96357 14.3641 5.87326 14.5842 5.71252 14.7465C5.55177 14.9088 5.33375 15 5.10643 15H2C1.77267 15 1.55465 14.9088 1.39391 14.7465C1.23316 14.5842 1.14286 14.3641 1.14286 14.1346C1.14286 13.9051 1.23316 13.685 1.39391 13.5227C1.55465 13.3604 1.77267 13.2692 2 13.2692H5.10643C5.33375 13.2692 5.55177 13.3604 5.71252 13.5227C5.87326 13.685 5.96357 13.9051 5.96357 14.1346Z" fill="black"/>
</svg>
