<svg width="16" height="22" viewBox="0 0 16 22" fill="none" xmlns="http://www.w3.org/2000/svg">
<path d="M15.9812 10.0986C15.9537 9.98104 15.8978 9.87215 15.8185 9.7816C15.7392 9.69106 15.639 9.62168 15.5268 9.57961L10.2908 7.59803L11.6232 0.873868C11.6534 0.717636 11.6324 0.555741 11.5633 0.412614C11.4943 0.269488 11.381 0.152895 11.2406 0.0804315C11.1001 0.00796745 10.9401 -0.0164364 10.7847 0.0109025C10.6292 0.0382414 10.4868 0.11584 10.379 0.231987L0.199696 11.2357C0.117021 11.3236 0.0572131 11.4307 0.0256154 11.5476C-0.00598241 11.6645 -0.00838587 11.7875 0.0186199 11.9056C0.0456257 12.0237 0.101199 12.1331 0.180376 12.2243C0.259553 12.3154 0.359867 12.3853 0.472356 12.4277L5.71014 14.4093L4.38138 21.1261C4.35121 21.2824 4.37222 21.4443 4.44125 21.5874C4.51028 21.7305 4.62357 21.8471 4.76404 21.9196C4.9045 21.992 5.06452 22.0164 5.21994 21.9891C5.37535 21.9618 5.51774 21.8842 5.62562 21.768L15.8049 10.7643C15.8861 10.6764 15.9446 10.5697 15.9754 10.4537C16.0061 10.3376 16.0081 10.2157 15.9812 10.0986ZM6.30908 18.886L7.26066 14.0829C7.29472 13.9125 7.26773 13.7355 7.18451 13.5834C7.10129 13.4312 6.96723 13.3138 6.80623 13.2521L2.00379 11.4319L9.6946 3.11862L8.74393 7.92172C8.70987 8.09207 8.73686 8.26908 8.82008 8.42122C8.9033 8.57337 9.03736 8.69076 9.19836 8.7525L13.9972 10.5681L6.30908 18.886Z" fill="black"/>
</svg>
