<svg width="16" height="16" viewBox="0 0 16 16" fill="none" xmlns="http://www.w3.org/2000/svg">
<path d="M15.4286 7.42857H14.8329C14.6957 5.81389 13.992 4.29972 12.8461 3.15385C11.7003 2.00799 10.1861 1.30427 8.57143 1.16714V0.571429C8.57143 0.419876 8.51123 0.274531 8.40406 0.167368C8.2969 0.0602039 8.15155 0 8 0C7.84845 0 7.7031 0.0602039 7.59594 0.167368C7.48878 0.274531 7.42857 0.419876 7.42857 0.571429V1.16714C5.81389 1.30427 4.29972 2.00799 3.15385 3.15385C2.00799 4.29972 1.30427 5.81389 1.16714 7.42857H0.571429C0.419876 7.42857 0.274531 7.48878 0.167368 7.59594C0.0602039 7.7031 0 7.84845 0 8C0 8.15155 0.0602039 8.2969 0.167368 8.40406C0.274531 8.51123 0.419876 8.57143 0.571429 8.57143H1.16714C1.30427 10.1861 2.00799 11.7003 3.15385 12.8461C4.29972 13.992 5.81389 14.6957 7.42857 14.8329V15.4286C7.42857 15.5801 7.48878 15.7255 7.59594 15.8326C7.7031 15.9398 7.84845 16 8 16C8.15155 16 8.2969 15.9398 8.40406 15.8326C8.51123 15.7255 8.57143 15.5801 8.57143 15.4286V14.8329C10.1861 14.6957 11.7003 13.992 12.8461 12.8461C13.992 11.7003 14.6957 10.1861 14.8329 8.57143H15.4286C15.5801 8.57143 15.7255 8.51123 15.8326 8.40406C15.9398 8.2969 16 8.15155 16 8C16 7.84845 15.9398 7.7031 15.8326 7.59594C15.7255 7.48878 15.5801 7.42857 15.4286 7.42857ZM8.57143 13.6857V13.1429C8.57143 12.9913 8.51123 12.846 8.40406 12.7388C8.2969 12.6316 8.15155 12.5714 8 12.5714C7.84845 12.5714 7.7031 12.6316 7.59594 12.7388C7.48878 12.846 7.42857 12.9913 7.42857 13.1429V13.6857C6.11777 13.552 4.89322 12.9702 3.96153 12.0385C3.02984 11.1068 2.44804 9.88223 2.31429 8.57143H2.85714C3.0087 8.57143 3.15404 8.51123 3.2612 8.40406C3.36837 8.2969 3.42857 8.15155 3.42857 8C3.42857 7.84845 3.36837 7.7031 3.2612 7.59594C3.15404 7.48878 3.0087 7.42857 2.85714 7.42857H2.31429C2.44804 6.11777 3.02984 4.89322 3.96153 3.96153C4.89322 3.02984 6.11777 2.44804 7.42857 2.31429V2.85714C7.42857 3.0087 7.48878 3.15404 7.59594 3.2612C7.7031 3.36837 7.84845 3.42857 8 3.42857C8.15155 3.42857 8.2969 3.36837 8.40406 3.2612C8.51123 3.15404 8.57143 3.0087 8.57143 2.85714V2.31429C9.88223 2.44804 11.1068 3.02984 12.0385 3.96153C12.9702 4.89322 13.552 6.11777 13.6857 7.42857H13.1429C12.9913 7.42857 12.846 7.48878 12.7388 7.59594C12.6316 7.7031 12.5714 7.84845 12.5714 8C12.5714 8.15155 12.6316 8.2969 12.7388 8.40406C12.846 8.51123 12.9913 8.57143 13.1429 8.57143H13.6857C13.552 9.88223 12.9702 11.1068 12.0385 12.0385C11.1068 12.9702 9.88223 13.552 8.57143 13.6857ZM8 5.14286C7.43491 5.14286 6.88251 5.31043 6.41266 5.62437C5.9428 5.93832 5.57659 6.38454 5.36034 6.90662C5.14409 7.42869 5.08751 8.00317 5.19776 8.5574C5.308 9.11163 5.58012 9.62073 5.9797 10.0203C6.37927 10.4199 6.88837 10.692 7.4426 10.8022C7.99683 10.9125 8.57131 10.8559 9.09338 10.6397C9.61546 10.4234 10.0617 10.0572 10.3756 9.58734C10.6896 9.11749 10.8571 8.56509 10.8571 8C10.8571 7.24224 10.5561 6.51551 10.0203 5.9797C9.48449 5.44388 8.75776 5.14286 8 5.14286ZM8 9.71429C7.66095 9.71429 7.32951 9.61375 7.04759 9.42538C6.76568 9.23701 6.54596 8.96927 6.41621 8.65603C6.28646 8.34278 6.25251 7.9981 6.31865 7.66556C6.3848 7.33302 6.54807 7.02756 6.78782 6.78782C7.02756 6.54807 7.33302 6.3848 7.66556 6.31865C7.9981 6.25251 8.34278 6.28646 8.65603 6.41621C8.96927 6.54596 9.23701 6.76568 9.42538 7.04759C9.61375 7.32951 9.71429 7.66095 9.71429 8C9.71429 8.45466 9.53367 8.89069 9.21218 9.21218C8.89069 9.53367 8.45466 9.71429 8 9.71429Z" fill="black"/>
</svg>
