<svg width="16" height="13" viewBox="0 0 16 13" fill="none" xmlns="http://www.w3.org/2000/svg">
<path d="M16 6.5C15.9993 5.81092 15.7986 5.13612 15.421 4.55369C15.0435 3.97127 14.5046 3.50503 13.8667 3.20894V3.11855C13.8661 2.44825 13.6443 1.79595 13.2341 1.25817C12.824 0.720389 12.2472 0.325692 11.5892 0.132481C10.9312 -0.060729 10.2269 -0.0421881 9.58055 0.18536C8.93419 0.412909 8.3801 0.837376 8.00025 1.39596C7.6204 0.837376 7.06631 0.412909 6.41995 0.18536C5.77359 -0.0421881 5.06931 -0.060729 4.41131 0.132481C3.75331 0.325692 3.17655 0.720389 2.76637 1.25817C2.35619 1.79595 2.13438 2.44825 2.13377 3.11855V3.20894C1.49534 3.50422 0.955934 3.97016 0.578221 4.55262C0.200507 5.13508 0 5.81014 0 6.49935C0 7.18856 0.200507 7.86362 0.578221 8.44608C0.955934 9.02854 1.49534 9.49448 2.13377 9.78976V9.88145C2.13438 10.5517 2.35619 11.204 2.76637 11.7418C3.17655 12.2796 3.75331 12.6743 4.41131 12.8675C5.06931 13.0607 5.77359 13.0422 6.41995 12.8146C7.06631 12.5871 7.6204 12.1626 8.00025 11.604C8.3801 12.1626 8.93419 12.5871 9.58055 12.8146C10.2269 13.0422 10.9312 13.0607 11.5892 12.8675C12.2472 12.6743 12.824 12.2796 13.2341 11.7418C13.6443 11.204 13.8661 10.5517 13.8667 9.88145V9.78976C14.5045 9.49389 15.0434 9.02788 15.4209 8.44568C15.7984 7.86348 15.9992 7.18889 16 6.5ZM5.33367 11.9623C4.80765 11.9623 4.3002 11.7726 3.90879 11.4298C3.51739 11.087 3.26961 10.6153 3.21307 10.1051C3.38553 10.1291 3.55951 10.1413 3.73372 10.1416H4.26703C4.40848 10.1416 4.54413 10.0868 4.64415 9.98919C4.74416 9.89163 4.80035 9.75931 4.80035 9.62134C4.80035 9.48337 4.74416 9.35105 4.64415 9.25349C4.54413 9.15593 4.40848 9.10112 4.26703 9.10112H3.73372C3.10411 9.10183 2.49455 8.88522 2.01296 8.48962C1.53136 8.09403 1.2088 7.54497 1.10238 6.93965C0.995966 6.33434 1.11255 5.71182 1.43151 5.1823C1.75046 4.65279 2.2512 4.25044 2.84508 4.0465C2.94899 4.01061 3.03895 3.9442 3.10258 3.85639C3.16621 3.76859 3.20038 3.66371 3.2004 3.55619V3.11855C3.2004 2.56666 3.42515 2.03738 3.82522 1.64713C4.22528 1.25689 4.76789 1.03765 5.33367 1.03765C5.89944 1.03765 6.44205 1.25689 6.84211 1.64713C7.24218 2.03738 7.46693 2.56666 7.46693 3.11855V7.55735C6.8813 7.04356 6.12133 6.75955 5.33367 6.76011C5.19222 6.76011 5.05657 6.81492 4.95655 6.91248C4.85654 7.01004 4.80035 7.14236 4.80035 7.28033C4.80035 7.41831 4.85654 7.55063 4.95655 7.64819C5.05657 7.74575 5.19222 7.80056 5.33367 7.80056C5.89944 7.80056 6.44205 8.0198 6.84211 8.41004C7.24218 8.80028 7.46693 9.32957 7.46693 9.88145C7.46693 10.4333 7.24218 10.9626 6.84211 11.3529C6.44205 11.7431 5.89944 11.9623 5.33367 11.9623ZM12.2668 9.10112H11.7335C11.592 9.10112 11.4564 9.15593 11.3564 9.25349C11.2563 9.35105 11.2002 9.48337 11.2002 9.62134C11.2002 9.75931 11.2563 9.89163 11.3564 9.98919C11.4564 10.0868 11.592 10.1416 11.7335 10.1416H12.2668C12.441 10.1413 12.615 10.1291 12.7874 10.1051C12.7431 10.5049 12.5811 10.8835 12.3208 11.1953C12.0606 11.507 11.7134 11.7386 11.3211 11.862C10.9289 11.9853 10.5083 11.9952 10.1104 11.8904C9.71254 11.7856 9.35428 11.5706 9.07897 11.2714C8.80367 10.9722 8.62311 10.6017 8.55912 10.2045C8.49514 9.80733 8.55048 9.40059 8.71844 9.03345C8.88639 8.66632 9.15979 8.3545 9.50556 8.1357C9.85133 7.91691 10.2547 7.8005 10.6668 7.80056C10.8083 7.80056 10.9439 7.74575 11.0439 7.64819C11.144 7.55063 11.2002 7.41831 11.2002 7.28033C11.2002 7.14236 11.144 7.01004 11.0439 6.91248C10.9439 6.81492 10.8083 6.76011 10.6668 6.76011C9.87917 6.75955 9.11921 7.04356 8.53357 7.55735V3.11855C8.53357 2.56666 8.75832 2.03738 9.15839 1.64713C9.55845 1.25689 10.1011 1.03765 10.6668 1.03765C11.2326 1.03765 11.7752 1.25689 12.1753 1.64713C12.5753 2.03738 12.8001 2.56666 12.8001 3.11855V3.55619C12.8001 3.66371 12.8343 3.76859 12.8979 3.85639C12.9616 3.9442 13.0515 4.01061 13.1554 4.0465C13.7493 4.25044 14.25 4.65279 14.569 5.1823C14.8879 5.71182 15.0045 6.33434 14.8981 6.93965C14.7917 7.54497 14.4691 8.09403 13.9875 8.48962C13.506 8.88522 12.8964 9.10183 12.2668 9.10112ZM13.3334 5.71966C13.3334 5.85764 13.2772 5.98996 13.1772 6.08752C13.0772 6.18508 12.9415 6.23989 12.8001 6.23989H12.5334C11.8969 6.23989 11.2865 5.99325 10.8364 5.55422C10.3864 5.1152 10.1335 4.51976 10.1335 3.89888V3.63877C10.1335 3.5008 10.1897 3.36848 10.2897 3.27092C10.3897 3.17336 10.5254 3.11855 10.6668 3.11855C10.8083 3.11855 10.9439 3.17336 11.0439 3.27092C11.144 3.36848 11.2002 3.5008 11.2002 3.63877V3.89888C11.2002 4.24381 11.3406 4.57461 11.5907 4.81852C11.8407 5.06242 12.1798 5.19944 12.5334 5.19944H12.8001C12.9415 5.19944 13.0772 5.25425 13.1772 5.35181C13.2772 5.44937 13.3334 5.58169 13.3334 5.71966ZM3.46706 6.23989H3.2004C3.05896 6.23989 2.9233 6.18508 2.82329 6.08752C2.72327 5.98996 2.66708 5.85764 2.66708 5.71966C2.66708 5.58169 2.72327 5.44937 2.82329 5.35181C2.9233 5.25425 3.05896 5.19944 3.2004 5.19944H3.46706C3.82067 5.19944 4.1598 5.06242 4.40984 4.81852C4.65988 4.57461 4.80035 4.24381 4.80035 3.89888V3.63877C4.80035 3.5008 4.85654 3.36848 4.95655 3.27092C5.05657 3.17336 5.19222 3.11855 5.33367 3.11855C5.47511 3.11855 5.61076 3.17336 5.71078 3.27092C5.81079 3.36848 5.86698 3.5008 5.86698 3.63877V3.89888C5.86698 4.51976 5.61413 5.1152 5.16406 5.55422C4.71399 5.99325 4.10356 6.23989 3.46706 6.23989Z" fill="black"/>
</svg>
