<svg width="13" height="12" viewBox="0 0 13 12" fill="none" xmlns="http://www.w3.org/2000/svg">
<path d="M0.00254636 4.96308C0.166182 3.70178 0.778021 2.52805 1.74032 1.62941C2.70261 0.730777 3.95984 0.159081 5.31114 0.00565793C5.34314 0.00209276 5.37558 0.00472473 5.40644 0.0133895C5.4373 0.0220542 5.46591 0.0365654 5.49049 0.0560166C5.51507 0.0754678 5.53509 0.099441 5.5493 0.126438C5.5635 0.153436 5.57159 0.182877 5.57305 0.212923C5.60204 0.875779 5.48357 1.53705 5.22511 2.15505C4.96666 2.77304 4.57383 3.33436 4.07139 3.80362C3.56895 4.27287 2.96779 4.63988 2.30582 4.88151C1.64385 5.12314 0.935424 5.23415 0.225203 5.20753C0.19296 5.20624 0.161351 5.19874 0.132356 5.18552C0.103361 5.17229 0.0776054 5.15362 0.0567025 5.13067C0.0357996 5.10772 0.0201999 5.08099 0.010881 5.05215C0.00156203 5.02331 -0.00127547 4.99299 0.00254636 4.96308ZM11.8701 6.09511C11.8045 6.09511 11.7395 6.09128 11.6738 6.09128C10.9798 6.09045 10.2927 6.22065 9.65394 6.47405C9.01518 6.72744 8.43793 7.0988 7.95691 7.56579C7.47589 8.03277 7.10104 8.58574 6.8549 9.19143C6.60875 9.79712 6.49641 10.443 6.52462 11.0903C6.52608 11.1203 6.53417 11.1498 6.54838 11.1768C6.56258 11.2038 6.5826 11.2277 6.60718 11.2472C6.63176 11.2666 6.66037 11.2811 6.69123 11.2898C6.72209 11.2985 6.75453 11.3011 6.78653 11.2975C8.13792 11.1441 9.39522 10.5723 10.3575 9.67356C11.3198 8.77482 11.9316 7.60097 12.0951 6.33956C12.099 6.30948 12.0961 6.27898 12.0866 6.25C12.0771 6.22101 12.0613 6.19418 12.0402 6.1712C12.019 6.14822 11.993 6.12959 11.9637 6.11649C11.9344 6.10339 11.9026 6.09611 11.8701 6.09511ZM7.36485 6.87988C7.92942 6.35012 8.60096 5.93012 9.34059 5.64419C10.0802 5.35826 10.8733 5.21207 11.6738 5.2141C11.7324 5.2141 11.7945 5.2141 11.8549 5.2141C11.8885 5.21522 11.922 5.20958 11.953 5.19757C11.9841 5.18555 12.012 5.16744 12.0349 5.14446C12.0578 5.12148 12.0752 5.09417 12.0857 5.06438C12.0963 5.03459 12.0999 5.00303 12.0963 4.97183C11.9347 3.70591 11.3218 2.52746 10.356 1.62594C9.39018 0.724416 8.12763 0.1522 6.7713 0.00128293C6.73787 -0.00211101 6.70405 0.00124812 6.67213 0.0111323C6.64022 0.0210165 6.61096 0.0371944 6.58634 0.0585674C6.56171 0.0799404 6.54231 0.106008 6.52943 0.135001C6.51656 0.163993 6.51052 0.195232 6.51173 0.226595C6.53837 1.00214 6.39425 1.77454 6.08827 2.49602C5.78229 3.2175 5.32096 3.87271 4.73282 4.42113C4.16844 4.95128 3.497 5.37168 2.75735 5.65799C2.01771 5.9443 1.22457 6.09083 0.423835 6.0891C0.365242 6.0891 0.303132 6.0891 0.242781 6.0891C0.209177 6.08797 0.175707 6.09361 0.144644 6.10562C0.11358 6.11764 0.0856504 6.13575 0.0627508 6.15873C0.0398511 6.18171 0.0225177 6.20902 0.0119275 6.23881C0.00133727 6.2686 -0.0022618 6.30016 0.00137457 6.33136C0.162923 7.59728 0.775872 8.77573 1.74168 9.67725C2.70749 10.5788 3.97005 11.151 5.32638 11.3019C5.3598 11.3053 5.39362 11.3019 5.42554 11.2921C5.45745 11.2822 5.48671 11.266 5.51134 11.2446C5.53596 11.2233 5.55537 11.1972 5.56824 11.1682C5.58111 11.1392 5.58715 11.108 5.58595 11.0766C5.55897 10.3007 5.70294 9.52787 6.00893 8.80599C6.31492 8.08412 6.77642 7.42855 7.36485 6.87988Z" fill="#00235B"/>
</svg>
