<?xml version="1.0" encoding="UTF-8"?>
<svg version="1.1" xmlns="http://www.w3.org/2000/svg" viewBox="0 0 1254 1254" width="1254" height="1254">
<path d="M0 0 C413.82 0 827.64 0 1254 0 C1254 413.82 1254 827.64 1254 1254 C840.18 1254 426.36 1254 0 1254 C0 840.18 0 426.36 0 0 Z " fill="#FDFDFD" transform="translate(0,0)"/>
<path d="M0 0 C1.25129196 -0.01248276 2.50258392 -0.02496552 3.79179382 -0.03782654 C7.80003445 -0.07015294 11.80806304 -0.09021874 15.81640625 -0.1015625 C16.49772362 -0.10371639 17.17904099 -0.10587029 17.88100433 -0.10808945 C38.46968774 -0.16054339 58.26328999 0.40836094 78.37890625 5.2734375 C80.13791578 5.66193429 81.89702461 6.04998183 83.65625 6.4375 C95.9015306 9.28541008 107.67175016 13.74670082 119.37890625 18.2734375 C120.14332031 18.56428223 120.90773438 18.85512695 121.6953125 19.15478516 C123.70251546 19.92478974 125.69846036 20.71736418 127.69140625 21.5234375 C128.78066406 21.96171875 129.86992188 22.4 130.9921875 22.8515625 C133.37890625 24.2734375 133.37890625 24.2734375 134.02807617 26.36230469 C134.1438501 26.99297852 134.25962402 27.62365234 134.37890625 28.2734375 C133.90171143 28.58458496 133.4245166 28.89573242 132.93286133 29.21630859 C106.6490347 46.40661882 84.29049884 65.14808668 65.25390625 90.2734375 C64.73683105 90.95349854 64.21975586 91.63355957 63.68701172 92.33422852 C60.07824629 97.15150804 57.05689516 102.0344037 54.3671875 107.4296875 C52.00020267 109.62461253 51.26802948 109.56915501 48.12890625 109.6171875 C44.07061132 109.41072937 40.08493547 108.87433907 36.06640625 108.2734375 C-1.8010874 103.45286945 -46.87060512 106.35988289 -80.84765625 124.87890625 C-83.62109375 126.2734375 -83.62109375 126.2734375 -87.37109375 127.59765625 C-92.30676496 129.40275155 -96.5843753 132.07360418 -100.99609375 134.8984375 C-101.83245361 135.43041748 -102.66881348 135.96239746 -103.53051758 136.51049805 C-109.83911165 140.60018613 -115.241399 145.01647343 -120.62109375 150.2734375 C-121.96901953 151.42660595 -123.32302249 152.57271641 -124.68359375 153.7109375 C-132.2954273 160.4263675 -138.23440797 167.88171314 -143.87109375 176.2734375 C-144.36641602 177.00860596 -144.86173828 177.74377441 -145.37207031 178.5012207 C-151.29841835 187.51927317 -155.39849218 196.78215838 -158.74609375 207.0234375 C-159.24689453 208.49683594 -159.24689453 208.49683594 -159.7578125 210 C-164.40030946 224.01852022 -166.30197652 237.27480275 -166.30859375 251.9609375 C-166.310336 252.8124942 -166.31207825 253.6640509 -166.31387329 254.54141235 C-166.22754144 282.85396093 -156.88837664 309.19440287 -137.62109375 330.2734375 C-136.93917969 331.08425781 -136.25726562 331.89507812 -135.5546875 332.73046875 C-124.45958774 345.70540125 -111.33833845 354.84777922 -96.62109375 363.2734375 C-95.5640625 363.89347656 -94.50703125 364.51351563 -93.41796875 365.15234375 C-88.1505744 368.15475853 -82.89267764 370.38568062 -77.16015625 372.34765625 C-74.91742667 373.16538996 -72.90962348 374.08889822 -70.80859375 375.2109375 C-57.03931198 382.37658414 -40.93886958 385.99031677 -26.05859375 390.0859375 C-24.79901855 390.43285645 -23.53944336 390.77977539 -22.24169922 391.13720703 C-10.40274622 394.38116684 1.50310088 397.33966084 13.41796875 400.29003906 C40.58438871 407.0285311 67.56218071 414.24952186 94.37890625 422.2734375 C95.4678418 422.59860352 96.55677734 422.92376953 97.67871094 423.25878906 C107.14177622 426.10508913 116.35092125 429.22603557 125.37890625 433.2734375 C126.85779633 433.91600154 128.33698913 434.55786909 129.81640625 435.19921875 C158.19364701 447.61072997 185.30528103 462.73522258 208.0078125 484.0546875 C210.06043271 485.97542602 212.15900155 487.78589431 214.31640625 489.5859375 C240.68199893 512.6290368 260.07258725 544.22886267 273.37890625 576.2734375 C273.86230469 577.43746094 274.34570312 578.60148438 274.84375 579.80078125 C294.96351407 630.25307717 294.55817739 690.87109738 278.37890625 742.2734375 C278.09917969 743.18222656 277.81945312 744.09101562 277.53125 745.02734375 C276.12567637 749.44376364 274.39910322 753.63259213 272.45996094 757.84082031 C271.41746877 760.18666312 270.48957878 762.55136813 269.57421875 764.94921875 C267.48358125 770.1997511 264.94845521 775.09599754 262.19140625 780.0234375 C261.70873291 780.89105713 261.22605957 781.75867676 260.72875977 782.65258789 C253.8525664 794.8979413 246.19150996 806.34070987 237.37890625 817.2734375 C236.56035156 818.29824219 235.74179687 819.32304688 234.8984375 820.37890625 C223.79142695 834.02892171 211.26803552 846.57977304 197.07958984 857.00830078 C195.37879897 858.2735173 193.71590466 859.57792052 192.0546875 860.89453125 C175.64058564 873.69216433 156.65881121 883.54344159 137.37890625 891.2734375 C136.528125 891.61600586 135.67734375 891.95857422 134.80078125 892.31152344 C124.12746612 896.57236637 113.5010246 900.36050174 102.37890625 903.2734375 C100.72375 903.76070312 100.72375 903.76070312 99.03515625 904.2578125 C63.01153007 914.61858994 25.14636951 913.57498857 -11.96884906 913.50556874 C-17.86133779 913.49680928 -23.7538231 913.49986309 -29.64631653 913.50137329 C-39.81860862 913.50241436 -49.99087476 913.49621995 -60.16316032 913.48489761 C-70.81344607 913.47305105 -81.46372374 913.46535295 -92.11401558 913.46319199 C-92.7801038 913.46305451 -93.44619202 913.46291703 -94.13246473 913.46277538 C-97.51618865 913.46209857 -100.89991258 913.46149586 -104.28363652 913.46092163 C-128.15320935 913.45673825 -152.02276872 913.44331269 -175.89233398 913.42431641 C-199.05867441 913.40590126 -222.22501113 913.39175682 -245.39135742 913.38330078 C-246.10741506 913.38303773 -246.8234727 913.38277468 -247.56122905 913.38250365 C-254.75319958 913.37986626 -261.94517013 913.37731468 -269.13714071 913.37482593 C-283.78361178 913.36975564 -298.43008262 913.36411314 -313.07655334 913.35812378 C-313.74974302 913.3578492 -314.42293269 913.35757462 -315.11652205 913.35729172 C-359.95138493 913.33893902 -404.78624014 913.30721245 -449.62109375 913.2734375 C-449.64442404 899.07887708 -449.66200715 884.88431963 -449.67290592 870.689744 C-449.67813547 864.09938965 -449.68523442 857.50904813 -449.6965332 850.91870117 C-449.70735953 844.56451732 -449.71337004 838.21034585 -449.71597099 831.85615349 C-449.7178257 829.42594139 -449.72144718 826.99573001 -449.72682381 824.56552315 C-449.73403086 821.17460769 -449.73508483 817.78374409 -449.73461914 814.39282227 C-449.73821442 813.37718704 -449.74180969 812.36155182 -449.74551392 811.31513977 C-449.74413925 810.39662231 -449.74276459 809.47810486 -449.74134827 808.53175354 C-449.74227006 807.72887185 -449.74319185 806.92599016 -449.74414158 806.09877872 C-449.62109375 804.2734375 -449.62109375 804.2734375 -448.62109375 803.2734375 C-445.98452241 803.17216967 -443.37401449 803.13691276 -440.73684692 803.14315224 C-439.4764756 803.14023709 -439.4764756 803.14023709 -438.19064224 803.13726306 C-435.33818053 803.13189353 -432.48576644 803.13371277 -429.63330078 803.13540649 C-427.58215276 803.13299087 -425.53100523 803.13012938 -423.4798584 803.12685716 C-417.81414882 803.11906958 -412.14845133 803.11748291 -406.48273706 803.11680603 C-400.38284591 803.1149723 -394.28296193 803.10736857 -388.18307495 803.10032654 C-378.28947524 803.08953049 -368.39587755 803.08136309 -358.50227405 803.07544643 C-341.78965481 803.06541916 -325.07705605 803.04616744 -308.36444908 803.02390404 C-301.93541012 803.01537225 -295.5063708 803.0071062 -289.07733154 802.99880028 C-288.36294445 802.99787527 -287.64855735 802.99695026 -286.91252217 802.99599722 C-269.89383197 802.97399003 -252.87513949 802.95420925 -235.85644531 802.93554688 C-235.11152976 802.9347272 -234.3666142 802.93390752 -233.59912544 802.933063 C-216.23645512 802.9139967 -198.8737849 802.89703369 -181.5111084 802.88470459 C-180.76544733 802.88417492 -180.01978627 802.88364525 -179.25152941 802.88309954 C-173.24199939 802.87884837 -167.23246931 802.87467185 -161.22293922 802.87051474 C-136.41811104 802.85329702 -111.61331067 802.82605552 -86.80850638 802.78735436 C-83.30102835 802.78189286 -79.79355013 802.77655981 -76.28607178 802.77131271 C-75.59578923 802.77027833 -74.90550668 802.76924395 -74.19430648 802.76817823 C-63.1057365 802.75188367 -52.01718608 802.74632629 -40.92860527 802.74501505 C-29.76778229 802.74350652 -18.60701176 802.73106197 -7.44620836 802.70825864 C-1.40472208 802.69625635 4.63666789 802.68906043 10.67816544 802.69497108 C16.2180239 802.7002937 21.75768645 802.69169854 27.29751229 802.67241471 C29.29305594 802.66786626 31.28861893 802.66827212 33.28415847 802.67436309 C50.76654973 802.72292696 66.57792396 800.14461945 83.37890625 795.2734375 C85.11527344 794.77650391 85.11527344 794.77650391 86.88671875 794.26953125 C93.30531588 792.37075832 99.3906271 790.26311487 105.37890625 787.2734375 C105.97687012 786.97840332 106.57483398 786.68336914 107.19091797 786.37939453 C121.81157993 779.10954937 134.54353949 770.57278221 146.37890625 759.2734375 C146.96671875 758.74878906 147.55453125 758.22414063 148.16015625 757.68359375 C169.80793142 737.61855686 182.99999336 705.51741545 184.59033203 676.40283203 C184.74871082 672.2141265 184.79793285 668.02731918 184.81640625 663.8359375 C184.8316333 661.86463867 184.8316333 661.86463867 184.84716797 659.85351562 C184.73283055 647.02839974 182.31466644 634.89469936 178.19140625 622.7734375 C177.88952393 621.88325928 177.5876416 620.99308105 177.27661133 620.07592773 C164.45802087 583.56545387 134.32294235 557.18256842 100.15893555 540.69018555 C92.32592025 536.98641785 84.42369122 533.49350538 76.37890625 530.2734375 C74.73341797 529.58701172 74.73341797 529.58701172 73.0546875 528.88671875 C62.33998399 524.47341925 51.41556892 520.79525356 40.37890625 517.2734375 C39.5895166 517.02094238 38.80012695 516.76844727 37.98681641 516.50830078 C17.82624617 510.12092012 -2.81627807 504.58118106 -23.609375 500.70825195 C-30.46682428 499.39519974 -37.11072511 497.52549387 -43.80102539 495.54101562 C-48.63701597 494.10997077 -53.46373377 492.80976488 -58.37890625 491.68212891 C-81.89078763 486.23753434 -105.54226694 477.98419181 -127.62109375 468.2734375 C-128.39050293 467.93812012 -129.15991211 467.60280273 -129.95263672 467.25732422 C-154.58946139 456.40016178 -177.30476433 441.65409197 -197.17578125 423.49609375 C-199.52261037 421.36295355 -201.91143961 419.28711677 -204.30859375 417.2109375 C-208.46758683 413.51001534 -212.05526941 409.5388856 -215.62109375 405.2734375 C-216.33523438 404.47035156 -217.049375 403.66726563 -217.78515625 402.83984375 C-236.20099823 381.69461802 -250.0637756 356.53557072 -259.62109375 330.2734375 C-259.89646973 329.54801758 -260.1718457 328.82259766 -260.45556641 328.07519531 C-267.90294923 308.42200545 -271.73385929 287.12372575 -271.82421875 266.125 C-271.82991882 265.07299408 -271.8356189 264.02098816 -271.8414917 262.93710327 C-271.85089503 260.71670522 -271.857457 258.4962935 -271.86132812 256.27587891 C-271.87096556 252.94277329 -271.90200639 249.61030334 -271.93359375 246.27734375 C-272.15340216 201.98842384 -256.79042878 156.64505425 -231.62109375 120.2734375 C-230.92371094 119.26539063 -230.22632813 118.25734375 -229.5078125 117.21875 C-217.05189882 99.7562846 -203.00904153 83.15362103 -186.62109375 69.2734375 C-185.77289063 68.53609375 -184.9246875 67.79875 -184.05078125 67.0390625 C-165.41226652 51.09221339 -144.54191669 38.38381044 -122.49609375 27.7109375 C-121.48998047 27.22238281 -120.48386719 26.73382813 -119.44726562 26.23046875 C-113.50725374 23.423176 -107.55379694 21.11913878 -101.28637695 19.14648438 C-98.77205675 18.32288732 -96.36519013 17.37556704 -93.93359375 16.3359375 C-75.61563477 8.93941148 -55.83766876 5.69777198 -36.43359375 2.5234375 C-35.74152832 2.40790527 -35.04946289 2.29237305 -34.33642578 2.17333984 C-22.98593829 0.40961165 -11.46698909 0.10593004 0 0 Z " fill="#8FD605" transform="translate(680.62109375,162.7265625)"/>
<path d="M0 0 C3.77411167 3.41059149 7.41649892 6.94116897 11 10.55078125 C11.51288574 11.06640625 12.02577148 11.58203125 12.55419922 12.11328125 C23.85846815 23.62362734 32.46025816 36.54983173 40.02441406 50.72998047 C40.8803892 52.32754368 41.76236676 53.91111815 42.6484375 55.4921875 C50.6106691 70.30025315 54.9366021 87.10629115 58 103.55078125 C58.22429687 104.66018066 58.22429687 104.66018066 58.453125 105.79199219 C63.42192773 130.81805251 62.70766872 158.55485287 58 183.55078125 C57.76651855 184.84121338 57.76651855 184.84121338 57.52832031 186.15771484 C53.06985988 210.06520775 44.83137174 233.80227869 34 255.55078125 C33.33145996 256.90429688 33.33145996 256.90429688 32.64941406 258.28515625 C17.88576354 287.95431805 -1.08305554 314.45071531 -20.79833984 340.96972656 C-28.28071735 351.04192454 -35.60639529 361.18457967 -42.64282227 371.57373047 C-44.20393419 373.8478597 -45.80251014 376.09392806 -47.3984375 378.34375 C-51.03977147 383.53911372 -54.39978952 388.87622385 -57.6875 394.30078125 C-58.28908936 395.29231201 -58.89067871 396.28384277 -59.51049805 397.30541992 C-65.6720925 407.5439563 -71.43841597 417.97593837 -77 428.55078125 C-77.42684082 429.35918457 -77.85368164 430.16758789 -78.29345703 431.00048828 C-83.10070604 440.16318429 -87.27874377 449.333078 -90.7109375 459.09765625 C-91.93893647 462.387205 -93.37025394 465.44378 -95 468.55078125 C-99.04233354 467.06011595 -100.20460978 464.90655248 -102.1875 461.17578125 C-106.62371373 453.23829775 -111.83600227 445.82425943 -118.125 439.23828125 C-120 436.55078125 -120 436.55078125 -119.79980469 433.27148438 C-118.99301931 429.51830699 -117.85429288 426.72337863 -116.078125 423.33203125 C-115.16752319 421.57922852 -115.16752319 421.57922852 -114.23852539 419.79101562 C-113.57624478 418.54397263 -112.91338999 417.29723443 -112.25 416.05078125 C-111.57045234 414.7573872 -110.89133954 413.46376458 -110.21264648 412.16992188 C-101.68524883 395.97960664 -92.71320153 380.06025172 -83 364.55078125 C-81.34150037 361.89173297 -79.69822504 359.22389011 -78.0625 356.55078125 C-77.47710449 355.61492187 -77.47710449 355.61492187 -76.87988281 354.66015625 C-74.84081165 351.31324194 -73.46655174 348.46092919 -73 344.55078125 C-78.966122 342.56207392 -84.79276691 343.70047765 -90.8125 344.98828125 C-91.47958984 345.12298828 -92.14667969 345.25769531 -92.83398438 345.39648438 C-96.52140658 346.15460903 -96.52140658 346.15460903 -100 347.55078125 C-118.36777673 350.5393625 -137.69687213 351.05358805 -156 347.55078125 C-158.85144979 347.02369348 -161.7036463 346.50083309 -164.55615234 345.97949219 C-166.52261555 345.6173078 -168.48786155 345.24843462 -170.45166016 344.87207031 C-171.80783447 344.61635254 -171.80783447 344.61635254 -173.19140625 344.35546875 C-174.40098999 344.1231958 -174.40098999 344.1231958 -175.63500977 343.88623047 C-178.15656414 343.52857426 -180.45800661 343.35908382 -183 343.55078125 C-183.66 344.21078125 -184.32 344.87078125 -185 345.55078125 C-184.19635366 356.99864129 -175.46868363 368.32282015 -169.4296875 377.76171875 C-168.83945801 378.68549316 -168.83945801 378.68549316 -168.23730469 379.62792969 C-167.36051527 380.99051718 -166.4748321 382.34740051 -165.58300781 383.70019531 C-165.12506836 384.4062793 -164.66712891 385.11236328 -164.1953125 385.83984375 C-163.77523926 386.47873535 -163.35516602 387.11762695 -162.92236328 387.77587891 C-162 389.55078125 -162 389.55078125 -162 392.55078125 C-166.06850382 392.00736071 -168.25671634 390.85399039 -171.4375 388.30078125 C-185.47511803 377.76788228 -201.43327238 369.63777909 -216.78759766 361.22021484 C-217.78710449 360.6680127 -218.78661133 360.11581055 -219.81640625 359.546875 C-220.69756104 359.06404053 -221.57871582 358.58120605 -222.48657227 358.08374023 C-227.63975057 354.94077699 -231.3154396 351.19799394 -234.9375 346.42578125 C-235.9035863 345.17313117 -236.86973527 343.92052942 -237.8359375 342.66796875 C-238.60115723 341.66975098 -238.60115723 341.66975098 -239.38183594 340.65136719 C-241.06686534 338.4639814 -242.76937156 336.2912197 -244.4765625 334.12109375 C-251.56641184 325.09764913 -258.48487738 315.99846486 -265 306.55078125 C-265.67530762 305.57866699 -265.67530762 305.57866699 -266.36425781 304.58691406 C-279.71374225 285.29009249 -294.42168356 263.90681474 -302 241.55078125 C-302.63679289 239.92221731 -303.28332234 238.29744005 -303.9375 236.67578125 C-304.2778125 235.82242187 -304.618125 234.9690625 -304.96875 234.08984375 C-305.61702636 232.49370878 -306.28143445 230.90393594 -306.96875 229.32421875 C-312.32244358 216.76030882 -315.16167076 203.40599233 -317.75 190.05078125 C-317.96068115 188.96539062 -318.1713623 187.88 -318.38842773 186.76171875 C-320.78155661 173.99313603 -321.20395586 161.63126835 -321.1875 148.67578125 C-321.18689575 147.80361969 -321.1862915 146.93145813 -321.18566895 146.03286743 C-321.13284718 118.01510868 -318.17403393 90.27637399 -305.3125 64.92578125 C-304.96509766 64.23846924 -304.61769531 63.55115723 -304.25976562 62.84301758 C-287.13707372 29.2879405 -262.63705317 3.4165714 -230 -15.44921875 C-228.93821533 -16.06941895 -228.93821533 -16.06941895 -227.85498047 -16.70214844 C-159.42903286 -56.17107233 -60.58558821 -53.17573318 0 0 Z " fill="#91D805" transform="translate(1053,224.44921875)"/>
<path d="M0 0 C34.98 0 69.96 0 106 0 C106 206.91 106 413.82 106 627 C206.32 627 306.64 627 410 627 C408.74377643 632.65300605 407.45765164 638.17803733 405.9375 643.75 C398.48317352 671.09190695 405.21063146 696.3209294 418.66479492 720.54736328 C421.08303736 724.75286089 423.84818857 728.31642425 427 732 C427 732.33 427 732.66 427 733 C286.09 733 145.18 733 0 733 C0 491.11 0 249.22 0 0 Z " fill="#03295D" transform="translate(232,164)"/>
<path d="M0 0 C159.06 0 318.12 0 482 0 C482 35.97 482 71.94 482 109 C322.94 109 163.88 109 0 109 C0 73.03 0 37.06 0 0 Z " fill="#042A5D" transform="translate(231,967)"/>
<path d="M0 0 C19.56249024 0.06912541 37.4262707 8.25739332 52 21 C52.61488281 21.53109375 53.22976563 22.0621875 53.86328125 22.609375 C66.83314383 34.65494852 76.1236706 52.4875923 78 70 C78.33 70.33 78.66 70.66 79 71 C79.14115161 73.67058851 79.04247107 76.32432238 79 79 C78.175 79.01417969 77.35 79.02835938 76.5 79.04296875 C56.77914077 79.85733459 37.8412224 87.98811316 23 101 C22.27941406 101.57878906 21.55882812 102.15757812 20.81640625 102.75390625 C0.34897247 119.74506878 -10.19349093 146.33965064 -14 172 C-30.19596099 173.44606795 -45.89415302 164.66806269 -58.3125 155.0625 C-59.89199145 153.72819105 -61.45505462 152.37416061 -63 151 C-63.75796875 150.33613281 -64.5159375 149.67226563 -65.296875 148.98828125 C-77.93725951 137.19785363 -87.83644507 118.95293259 -91 102 C-91.12848741 97.9958999 -91.09537544 94.00454591 -91 90 C-90.37246826 89.87061035 -89.74493652 89.7412207 -89.09838867 89.60791016 C-68.84282633 85.30920715 -51.9473197 78.38188131 -36 65 C-35.06929687 64.24332031 -34.13859375 63.48664062 -33.1796875 62.70703125 C-14.48528749 46.74649196 -4.56486183 23.68886633 0 0 Z " fill="#91D806" transform="translate(748,748)"/>
<path d="M0 0 C1.38547726 16.35632873 -5.99094075 34.81171043 -16.0625 47.5625 C-17.3650615 49.05042602 -18.67680845 50.53038971 -20 52 C-20.5053125 52.65742187 -21.010625 53.31484375 -21.53125 53.9921875 C-27.10079791 61.06778663 -34.62520639 65.97613232 -42 71 C-42.78375 71.54011719 -43.5675 72.08023438 -44.375 72.63671875 C-50.53945218 76.45338153 -57.56534617 78.08914174 -64.5 79.984375 C-67.79687039 80.63619201 -67.79687039 80.63619201 -69 82 C-71.01964199 82.07244053 -73.04167124 82.08377188 -75.0625 82.0625 C-76.16722656 82.05347656 -77.27195312 82.04445313 -78.41015625 82.03515625 C-79.26480469 82.02355469 -80.11945312 82.01195312 -81 82 C-80.54481012 62.09578777 -70.36417062 42.37400345 -57 28 C-56.33726074 27.26789307 -56.33726074 27.26789307 -55.66113281 26.52099609 C-44.69720531 14.48509099 -29.30462549 2.55998473 -12.6875 0.125 C-8.45395393 -0.01851004 -4.2351644 -0.08823259 0 0 Z " fill="#92D907" transform="translate(826,838)"/>
<path d="M0 0 C-1.94808731 24.15628263 -17.1124486 44.85676661 -34.8671875 60.53125 C-47.22620564 70.31128604 -63.92712276 79.48158434 -80 79 C-78.06829265 57.38486086 -68.27260071 39.07954818 -53 24 C-52.1853125 23.18660156 -51.370625 22.37320313 -50.53125 21.53515625 C-41.3774911 12.84205729 -31.04432745 6.71561219 -19 3 C-18.14535156 2.70222656 -17.29070313 2.40445313 -16.41015625 2.09765625 C-10.73177538 0.19902967 -5.98184106 -0.28944392 0 0 Z " fill="#93DA08" transform="translate(737,748)"/>
<path d="M0 0 C3.68007515 1.84003757 5.60447652 3.42585301 7.9375 6.8125 C9.54954062 11.64862186 8.80512937 15.13548987 6.8125 19.75 C3.83610236 23.44483845 0.63987056 24.76085221 -4 25.4375 C-8.8547582 24.72951443 -11.82247704 22.45227831 -14.875 18.6875 C-16.35117243 15.16108808 -16.46618895 12.79611 -16 9 C-12.32317126 1.9187002 -8.0382172 -0.98714948 0 0 Z " fill="#F8FCF3" transform="translate(883,437)"/>
<path d="M0 0 C3.12578143 1.6720747 5.39281175 3.7856235 7 7 C7.37168996 12.57534937 7.22542715 16.21747009 4 21 C0.35461787 24.21651364 -3.15342411 24.5194935 -7.84765625 24.35546875 C-11.12506791 23.81419024 -12.78820981 22.41286203 -15 20 C-17.49754653 15.76657007 -17.840947 11.81254817 -17 7 C-13.03121338 -0.11135744 -7.60452124 -1.07138737 0 0 Z " fill="#FAFCF6" transform="translate(840,358)"/>
<path d="M0 0 C2.875 1.3125 2.875 1.3125 5 3 C5.52980469 3.41894531 6.05960938 3.83789062 6.60546875 4.26953125 C9.04525905 7.29705815 8.45807941 10.59606934 8.359375 14.33203125 C7.87907943 17.89770378 6.67378443 19.63179093 4 22 C-0.23984591 24.82656394 -4.02413447 24.90400041 -9 24 C-12.66868716 21.67405234 -14.63485419 19.09543743 -16 15 C-16.67195988 8.16840786 -16.67195988 8.16840786 -14.953125 5.1796875 C-10.4471045 -0.30705511 -6.76594323 -0.66838607 0 0 Z " fill="#F9FCF5" transform="translate(1015,278)"/>
<path d="M0 0 C2.875 1.3125 2.875 1.3125 5 3 C5.5775 3.391875 6.155 3.78375 6.75 4.1875 C8.82184354 7.19167314 9.10796519 10.44389672 9 14 C7.38873498 18.65476562 5.28132195 21.52634732 1 24 C-2.93607087 24.71056857 -6.05423306 24.38690466 -9.75 22.875 C-13.70549682 19.57875265 -15.76571521 16.63999354 -16.5 11.5 C-15.907297 7.35107899 -14.6294764 5.23049958 -12 2 C-7.96034416 -0.69310389 -4.74260986 -0.55107791 0 0 Z " fill="#F9FCF3" transform="translate(971,278)"/>
<path d="M0 0 C3.70390021 2.02666238 5.65363011 3.48044516 8 7 C8.58760427 11.50242236 8.50290275 15.68686505 6.875 19.9375 C3.73653297 23.38981374 0.58443838 24.76893607 -4 25.4375 C-7.94665429 24.86194625 -9.96043437 23.56674431 -13 21 C-15.64201025 16.94891762 -16.70236884 13.8162435 -16 9 C-12.26055342 1.9366009 -8.07493992 -0.99165929 0 0 Z " fill="#F9FCF4" transform="translate(883,477)"/>
<path d="M0 0 C4.11094668 2.05547334 6.32633009 3.74187236 8 8 C8.34050529 12.88057582 7.66327491 16.18366164 4.5625 20 C-0.098308 23.6377038 -4.21374924 23.66519103 -10 23 C-13.49996383 20.95835443 -15.80555258 18.90910064 -17 15 C-17.7557317 8.30637636 -17.7557317 8.30637636 -15.94921875 5.18359375 C-11.2707003 -0.54379609 -7.05749417 -0.79017956 0 0 Z " fill="#F9FCF4" transform="translate(972,438)"/>
<path d="M0 0 C3.00197464 1.80118478 4.45166366 2.90332732 6 6 C6.60644601 11.38004242 7.0316689 15.595784 3.75 20.0625 C-0.72686734 23.21665654 -3.37344427 24.67518669 -9 24 C-13.31455798 21.71582225 -16.13452098 19.56005984 -18 15 C-18.83389634 8.43306631 -18.83389634 8.43306631 -16.9453125 5.1875 C-12.08507468 -0.79433116 -7.33847835 -0.79420761 0 0 Z " fill="#F9FCF4" transform="translate(929,438)"/>
<path d="M0 0 C5.49296759 0.07834661 8.0987585 1.6880148 12.0625 5.4375 C14.24482442 9.07470737 14.68518657 12.16555266 13.75 16.25 C11.71189483 19.915367 8.84406519 23.08026709 4.75 24.25 C-1.94362364 25.0057317 -1.94362364 25.0057317 -5.06640625 23.19921875 C-8.16579904 20.6674256 -10.07104054 18.8376261 -10.5234375 14.82421875 C-10.80028054 6.95548787 -10.80028054 6.95548787 -7.8125 3.125 C-6.966875 2.50625 -6.12125 1.8875 -5.25 1.25 C-3.68966377 -0.31033623 -2.16052864 0.04292441 0 0 Z " fill="#F9FCF4" transform="translate(966.25,317.75)"/>
<path d="M0 0 C3.24279068 1.48040444 5.73666598 3.2484959 8 6 C8.93808654 10.91016468 8.47382881 15.01724395 6.3125 19.5 C2.88744478 23.2027624 0.49328073 23.80994609 -4.4375 24.4375 C-9.22290615 23.84981854 -10.62045078 22.37954922 -14 19 C-16.6816265 14.97756025 -16.68957829 11.72734998 -16 7 C-11.87544713 0.31537983 -7.41323145 -0.86139661 0 0 Z " fill="#FAFCF5" transform="translate(794,398)"/>
<path d="M0 0 C4.11092959 1.77517414 6.73298981 4.13768634 9 8 C9.82566144 12.58700801 9.65179349 15.90591807 7.25 19.9375 C3.14758581 23.69804634 -0.27825326 24.49882172 -5.7421875 24.390625 C-9.62941562 23.71809418 -11.34158873 21.85779211 -14 19 C-15.35624248 14.93127256 -15.66606438 11.24978036 -15 7 C-11.4444158 0.59198817 -7.02436646 -0.74439336 0 0 Z " fill="#FAFDF6" transform="translate(1059,358)"/>
<path d="M0 0 C3.8026029 2.0050088 5.61790841 3.42686262 8 7 C8.45412106 12.5402769 8.28294372 16.29444733 5 21 C0.30760479 24.2737641 -3.46706501 24.70259492 -9 24 C-12.03722197 21.55701712 -13.84424433 19.2336335 -16 16 C-16.4775733 11.14467144 -16.51341394 8.95601216 -14.1875 4.625 C-9.96636842 -0.4403579 -6.24292377 -0.88423664 0 0 Z " fill="#FAFCF5" transform="translate(839,278)"/>
<path d="M0 0 C3.68623011 1.61272567 4.75355 2.630325 7 6 C7.78613611 11.34572552 8.00564773 15.6312017 4.75 20.0625 C0.27313266 23.21665654 -2.37344427 24.67518669 -8 24 C-12.31646551 21.71481238 -15.0976625 19.54447291 -17 15 C-17.55438343 10.6441302 -17.30805175 8.56299114 -15.1875 4.6875 C-10.74540194 -0.76993477 -6.60162587 -0.69601806 0 0 Z " fill="#FAFDF5" transform="translate(1016,398)"/>
<path d="M0 0 C3.90270056 0.05589805 6.48273704 0.23767223 9.5 2.8125 C12.34439206 6.29172738 12.55055015 9.65023103 12.2734375 14.03125 C11.44860762 18.3371416 9.4703207 21.13492659 6.0625 23.8125 C1.91821576 24.96369007 -2.11791095 25.57668169 -5.96875 23.45703125 C-8.8777198 21.13983717 -10.83047367 18.87147744 -12.1875 15.4375 C-12.53056516 10.52023268 -11.86146013 7.24625216 -8.6875 3.4375 C-7.8625 2.7775 -7.0375 2.1175 -6.1875 1.4375 C-4.47451105 -0.27548895 -2.34104401 0.10425702 0 0 Z " fill="#FAFCF6" transform="translate(923.1875,357.5625)"/>
<path d="M0 0 C3.66195861 1.59215592 6.20204902 3.40409804 8 7 C8.58703194 11.2861373 8.47084867 14.8600506 6.8125 18.875 C3.55554811 22.69349532 1.11390034 23.83830479 -3.875 24.5625 C-8.22431982 24.41394638 -10.53711456 22.47942734 -13.65234375 19.60546875 C-16.57690904 16.1214214 -16.29895873 12.33490154 -16 8 C-12.56802103 0.44964626 -7.86727818 -1.04146437 0 0 Z " fill="#FAFDF7" transform="translate(794,358)"/>
<path d="M0 0 C3.81520039 2.01557757 7.00081488 4.1126956 9 8 C9.57968839 13.21719552 8.81446546 16.57726857 6 21 C2.25517747 24.40438412 -0.60966188 24.5635767 -5.51953125 24.42578125 C-9.58065982 23.72867414 -11.25558026 22.02589869 -14 19 C-15.35113662 14.94659014 -15.5512044 11.23831488 -15 7 C-11.28077483 0.97229025 -7.00296415 -1.08758155 0 0 Z " fill="#FAFCF5" transform="translate(1059,318)"/>
<path d="M0 0 C3.42215082 0.83755343 5.39670173 1.8628665 7.63671875 4.58984375 C9.62728454 8.81274445 9.41373222 13.12160571 8.6015625 17.63671875 C6.58319401 21.1688636 4.52359717 23.43831927 0.6015625 24.63671875 C-4.06792683 25.16391916 -6.99612634 25.39329951 -10.7734375 22.44921875 C-14.09734445 18.88788987 -15.02390644 16.50937407 -15.9609375 11.82421875 C-14.44622398 3.24084214 -8.41557893 -0.7070941 0 0 Z " fill="#FAFCF5" transform="translate(882.3984375,317.36328125)"/>
<path d="M0 0 C3.90219612 0.05633092 6.33392335 0.29804882 9.375 2.8125 C12.67340167 6.45810184 13.05026639 8.47026864 12.9609375 13.41015625 C12.50128905 17.82788857 10.32187576 19.94542085 7.0625 22.75 C2.70496392 24.96987687 0.60234374 25.05367063 -4.25 24.4375 C-7.31247955 22.63995766 -8.81734966 21.19978869 -10.5625 18.125 C-11.85344571 13.07857586 -11.97847808 9.72447794 -9.375 5.125 C-6.19040184 1.09741997 -5.1147383 0.11878491 0 0 Z " fill="#FAFCF6" transform="translate(834.25,317.5625)"/>
<path d="M0 0 C3.70390021 2.02666238 5.65363011 3.48044516 8 7 C8.79545618 12.409102 8.99640824 16.65350237 5.6875 21.125 C1.09185431 24.33126443 -3.53189653 24.87451215 -9 24 C-12.09632649 21.56246638 -13.82300487 19.26549269 -16 16 C-16.75937331 9.382604 -16.75937331 9.382604 -15.01953125 6.21484375 C-10.60545123 0.68705738 -6.99510927 -0.72363199 0 0 Z " fill="#F9FCF4" transform="translate(971,477)"/>
<path d="M0 0 C3.17293023 1.42389449 5.17216242 3.02976393 7 6 C8.00721906 10.64357611 7.58471838 14.55359138 5.8125 18.9375 C2.68709697 22.4939931 0.28587237 23.83634352 -4.4375 24.4375 C-8.7426591 23.90879625 -10.72712679 22.82657232 -14 20 C-16.64201025 15.94891762 -17.70236884 12.8162435 -17 8 C-12.774687 0.42357669 -8.36864249 -1.39055993 0 0 Z " fill="#FAFCF6" transform="translate(884,398)"/>
<path d="M0 0 C5.66021224 0.04506538 8.86968962 2.36968962 12.8125 6.3125 C13.51472047 11.38318505 13.62704858 15.88703998 11.0625 20.375 C7.07189093 23.81135781 4.27946734 24.83105518 -1.15625 24.69921875 C-4.86801579 23.99255565 -6.60400543 22.01901812 -9.1875 19.3125 C-11.51822271 15.53189628 -11.38203423 12.80117009 -10.80859375 8.50390625 C-9.85806874 5.15016708 -7.85145657 3.44366526 -5.1875 1.3125 C-3.63719882 -0.23780118 -2.15073999 0.06844901 0 0 Z " fill="#FAFCF5" transform="translate(789.1875,317.6875)"/>
<path d="M0 0 C2.875 1.3125 2.875 1.3125 5 3 C5.52980469 3.41894531 6.05960938 3.83789062 6.60546875 4.26953125 C9.04558792 7.29746624 8.45911646 10.59577811 8.35546875 14.33203125 C7.87619754 17.92919868 6.73469225 19.64512612 4 22 C0.97745563 24.26690828 -2.22599704 24.47749447 -5.96875 24.38671875 C-9.68051579 23.68005565 -11.41650543 21.70651812 -14 19 C-16.29945129 15.24988817 -16.27693595 12.52893469 -15.65625 8.26171875 C-14.73043136 5.07095094 -13.37575188 3.19718837 -10.87890625 1.03125 C-7.33743244 -0.9125111 -3.88953603 -0.73333212 0 0 Z " fill="#FBFDF7" transform="translate(1015,358)"/>
<path d="M0 0 C3.19006968 1.52253326 5.7666215 3.25559421 8 6 C8.77495519 10.48258397 8.51478176 14.7265925 6.8125 18.9375 C3.48975607 22.71855343 1.09214387 23.86131506 -3.9375 24.5 C-8.70314808 24.31982427 -10.76251637 22.39164952 -14 19 C-16.5422395 15.53330978 -16.36849437 12.20083582 -16 8 C-14.58498308 4.54106975 -13.37740787 3.2487461 -10.25 1.1875 C-6.51423674 -0.17749042 -3.95029953 -0.43094177 0 0 Z " fill="#FAFDF7" transform="translate(883,358)"/>
<path d="M0 0 C4.56881419 2.12305492 8.12884591 4.1646414 10 9 C10.47584595 13.28261351 10.27767535 15.47440024 8.25 19.3125 C5.57177168 22.51149494 3.73110721 23.75792647 -0.40234375 24.3359375 C-4.70671256 24.40226059 -7.285158 24.42306976 -11.0625 22.1875 C-14.61283045 18.1790624 -14.44615228 13.80537437 -14.42578125 8.671875 C-13.94927087 5.6816631 -13.42239872 4.77552449 -11.125 2.875 C-6.93016375 0.35809825 -4.93965482 -0.54885054 0 0 Z " fill="#FAFDF6" transform="translate(970,238)"/>
<path d="M0 0 C3.15835169 2.43456276 4.79981495 4.69972243 7 8 C7.46170489 12.98641282 7.18538905 16.07135351 4 20 C0.76200632 22.72285832 -1.29638867 23.8994841 -5.5 24.5 C-9.70093265 23.89986676 -11.79326564 22.75928305 -15 20 C-17.40359514 16.06684432 -17.88903245 11.50677837 -17 7 C-12.91305814 -0.04959488 -7.67581943 -1.09999932 0 0 Z " fill="#FAFDF7" transform="translate(1061,398)"/>
<path d="M0 0 C3.70382941 0.88023106 5.38257936 2.52180125 7.53125 5.6015625 C8.77342258 9.32808023 9.0653753 12.73098324 8.53125 16.6015625 C6.90734951 19.73337059 5.52858974 21.84495994 2.71875 23.9765625 C-1.58416417 25.20596655 -5.16347662 25.22453389 -9.21875 23.2890625 C-13.60719716 19.99772713 -15.0955016 17.98102102 -15.96875 12.4140625 C-15.35525235 7.73614293 -13.96023458 5.52912986 -10.73828125 2.15625 C-7.20293668 -0.2655523 -4.19294802 -0.31101537 0 0 Z " fill="#FAFCF6" transform="translate(882.46875,277.3984375)"/>
<path d="M0 0 C3.8026029 2.0050088 5.61790841 3.42686262 8 7 C8.42763893 12.30272272 8.53414849 15.75902182 5 20 C1.81982717 22.67423624 -0.34055246 23.88010045 -4.4375 24.625 C-9.16276813 23.79600559 -11.89620164 21.6035625 -15 18 C-16.24300105 14.27099684 -16.6711674 10.86650786 -16 7 C-12.09733977 0.21403109 -7.3604196 -0.91541353 0 0 Z " fill="#FBFDF7" transform="translate(839,398)"/>
<path d="M0 0 C4.80609532 0.08286371 7.71864066 0.98127442 11.15234375 4.390625 C13.60981059 8.50472284 13.26124054 12.85975356 12.375 17.4375 C10.35663151 20.96964485 8.29703467 23.23910052 4.375 24.4375 C-2.31862364 25.1932317 -2.31862364 25.1932317 -5.44140625 23.38671875 C-8.54079904 20.8549256 -10.44604054 19.0251261 -10.8984375 15.01171875 C-11.17528054 7.14298787 -11.17528054 7.14298787 -8.1875 3.3125 C-7.341875 2.69375 -6.49625 2.075 -5.625 1.4375 C-4.00106095 -0.18643905 -2.24052751 0.11168793 0 0 Z " fill="#FAFDF7" transform="translate(1010.625,317.5625)"/>
<path d="M0 0 C3.93472545 1.59601314 6.6084335 3.41265025 9 7 C9.54679399 10.71819916 9.5490121 14.28193784 9 18 C6.7984026 20.89683868 5.21405538 22.39297231 2 24 C-1.3858534 24.41948626 -4.62068431 24.49414522 -8 24 C-11.0625 21.5625 -11.0625 21.5625 -13 19 C-13.33 18.67 -13.66 18.34 -14 18 C-14.52263424 13.61733856 -15.02371348 8.98248992 -12.953125 4.97265625 C-8.94851246 0.15534293 -6.13177924 -0.50260486 0 0 Z " fill="#FAFCF5" transform="translate(926,477)"/>
<path d="M0 0 C4.08203963 0.045356 6.48154882 0.65446524 9.75 3.25 C10.27980469 3.66894531 10.80960938 4.08789062 11.35546875 4.51953125 C13.79558792 7.54746624 13.20911646 10.84577811 13.10546875 14.58203125 C12.62619754 18.17919868 11.48469225 19.89512612 8.75 22.25 C5.72781502 24.51663874 2.52684401 24.72146315 -1.21484375 24.64453125 C-4.86727597 23.93647817 -6.68783808 21.87465368 -9.25 19.25 C-11.22573586 15.29852828 -10.82649875 10.54584552 -10.25 6.25 C-7.8125 3.125 -7.8125 3.125 -5.25 1.25 C-3.68966377 -0.31033623 -2.16052864 0.04292441 0 0 Z " fill="#FAFDF7" transform="translate(966.25,357.75)"/>
<path d="M0 0 C4.08203963 0.045356 6.48154882 0.65446524 9.75 3.25 C10.27980469 3.66894531 10.80960938 4.08789062 11.35546875 4.51953125 C13.79558792 7.54746624 13.20911646 10.84577811 13.10546875 14.58203125 C12.62619754 18.17919868 11.48469225 19.89512612 8.75 22.25 C5.26335549 24.77481154 1.95248882 24.68474022 -2.25 24.25 C-5.95390021 22.22333762 -7.90363011 20.76955484 -10.25 17.25 C-10.79672123 13.53229564 -10.80429073 9.96700842 -10.25 6.25 C-7.8125 3.125 -7.8125 3.125 -5.25 1.25 C-3.68966377 -0.31033623 -2.16052864 0.04292441 0 0 Z " fill="#FAFDF6" transform="translate(966.25,397.75)"/>
<path d="M0 0 C3.16349419 1.68637628 5.37202541 3.74405083 7 7 C7.35017306 12.3401391 7.46830225 15.66462219 4 20 C0.04360118 23.58958039 -3.19299466 23.55693672 -8.36328125 23.42578125 C-11 23 -11 23 -14.125 20.6875 C-16.7330687 16.9492682 -17.49223792 13.71320638 -17.390625 9.140625 C-16.77906049 5.78925148 -15.39036536 3.72790807 -13.04296875 1.296875 C-8.95341598 -1.29916997 -4.60353947 -0.99720588 0 0 Z " fill="#FBFDF8" transform="translate(840,438)"/>
<path d="M0 0 C3.11326625 1.31117601 5.45304576 2.90609152 7 6 C7.41654299 10.52589985 7.51073318 14.66641891 5.875 18.9375 C2.55452646 22.5900209 -0.66244994 23.80892142 -5.5 24.5 C-10.17750129 23.83178553 -11.68944344 22.31055656 -15 19 C-16.96752105 15.0649579 -16.46422595 10.2894478 -16 6 C-12.01256983 -0.64571695 -7.25915283 -0.8337465 0 0 Z " fill="#FAFDF7" transform="translate(1016,438)"/>
<path d="M0 0 C2.875 1.3125 2.875 1.3125 5 3 C5.52980469 3.41894531 6.05960938 3.83789062 6.60546875 4.26953125 C9.04525905 7.29705815 8.45807941 10.59606934 8.359375 14.33203125 C7.87907943 17.89770378 6.67378443 19.63179093 4 22 C-0.02181615 24.68121076 -3.27236391 24.81344335 -8 24 C-11.0717718 22.28922026 -13.40485654 20.19028693 -15 17 C-15.5735077 12.5571302 -16.01486939 8.04135942 -13.9765625 3.94140625 C-10.054391 -0.57667529 -5.70960656 -1.07648774 0 0 Z " fill="#FAFCF6" transform="translate(927,318)"/>
<path d="M0 0 C4.02264445 2.12517065 6.31929919 3.78282871 8 8 C8.58917111 12.27722925 8.44539482 15.95332218 6.75 19.9375 C4.35429915 22.76100458 2.26967806 23.82245152 -1.40234375 24.3359375 C-8.27825651 24.44188377 -8.27825651 24.44188377 -12.0625 22.125 C-15.6346346 18.20717495 -15.33220767 14.83845139 -15.28515625 9.703125 C-14.90033774 6.05525636 -13.76015463 4.37679982 -11 2 C-7.51335549 -0.52481154 -4.20248882 -0.43474022 0 0 Z " fill="#FAFDF7" transform="translate(883,238)"/>
<path d="M0 0 C3.41311667 2.52570633 4.66637768 3.99913304 6 8 C6.39308695 12.79566077 6.48270142 15.06907584 4.25 19.375 C0.85854852 23.33169339 -0.67880377 23.85083268 -5.875 24.4375 C-10.66712268 24.33897037 -12.72173592 22.35822174 -16 19 C-18.00330202 14.99339595 -17.61133165 10.34656805 -17 6 C-13.77619118 -0.96289856 -6.86886393 -1.42186529 0 0 Z " fill="#FAFCF6" transform="translate(929,278)"/>
<path d="M0 0 C4.80609532 0.08286371 7.71864066 0.98127442 11.15234375 4.390625 C13.61161651 8.50774618 13.25490233 12.85642122 12.375 17.4375 C10.56595851 20.7205753 9.24140225 21.95869876 6 23.75 C1.23447107 24.99811472 -1.49883119 25.06555569 -5.875 22.625 C-8.84344504 20.2637369 -10.43529211 18.72751362 -10.99609375 14.9140625 C-11.17701228 7.14520805 -11.17701228 7.14520805 -8.1875 3.3125 C-7.341875 2.69375 -6.49625 2.075 -5.625 1.4375 C-4.00106095 -0.18643905 -2.24052751 0.11168793 0 0 Z " fill="#FAFCF6" transform="translate(922.625,397.5625)"/>
<path d="M0 0 C5.59213034 3.39129192 5.59213034 3.39129192 6.87109375 5.94921875 C7.29417913 10.54620407 7.41003842 14.65575153 5.62109375 18.94921875 C3.21094879 21.70367013 1.08859315 22.76114974 -2.53125 23.3203125 C-9.4354393 23.50116183 -9.4354393 23.50116183 -13.19140625 20.51171875 C-13.83078125 19.66609375 -14.47015625 18.82046875 -15.12890625 17.94921875 C-15.45890625 17.61921875 -15.78890625 17.28921875 -16.12890625 16.94921875 C-16.65139361 11.84426032 -16.96240958 7.40784958 -14.37890625 2.88671875 C-9.93754503 -0.93778675 -5.6762987 -2.80169606 0 0 Z " fill="#FAFCF6" transform="translate(928.12890625,239.05078125)"/>
<path d="M0 0 C0.66 0.66 1.32 1.32 2 2 C1.0479279 3.00596297 0.08812654 4.00461563 -0.875 5 C-1.40867187 5.556875 -1.94234375 6.11375 -2.4921875 6.6875 C-4 8 -4 8 -6 8 C-6.226875 8.5775 -6.45375 9.155 -6.6875 9.75 C-8.33038023 12.5663661 -10.39533227 14.08077114 -13 16 C-12.42308522 12.83145253 -11.58353113 11.21773541 -9.27734375 8.984375 C-8.73916016 8.45585937 -8.20097656 7.92734375 -7.64648438 7.3828125 C-7.08251953 6.84398437 -6.51855469 6.30515625 -5.9375 5.75 C-5.36966797 5.19570312 -4.80183594 4.64140625 -4.21679688 4.0703125 C-2.81787531 2.70665786 -1.40980886 1.35239583 0 0 Z " fill="#97E01E" transform="translate(789,233)"/>
<path d="M0 0 C-0.33 1.65 -0.66 3.3 -1 5 C-1.66 4.34 -2.32 3.68 -3 3 C-5.52037964 2.62864085 -5.52037964 2.62864085 -8.4453125 2.5859375 C-10.05986328 2.52792969 -10.05986328 2.52792969 -11.70703125 2.46875 C-12.83496094 2.4378125 -13.96289062 2.406875 -15.125 2.375 C-16.82849609 2.31699219 -16.82849609 2.31699219 -18.56640625 2.2578125 C-21.37743956 2.16332399 -24.18846233 2.07776459 -27 2 C-27 1.67 -27 1.34 -27 1 C-23.06254264 0.83231578 -19.12502757 0.6660268 -15.1875 0.5 C-14.06794922 0.45230469 -12.94839844 0.40460937 -11.79492188 0.35546875 C-10.72177734 0.31035156 -9.64863281 0.26523437 -8.54296875 0.21875 C-7.55321045 0.17685547 -6.56345215 0.13496094 -5.54370117 0.09179688 C-3.69674974 0.02514425 -1.84815371 0 0 0 Z " fill="#0A3167" transform="translate(642,792)"/>
<path d="M0 0 C0.66 0 1.32 0 2 0 C2.09038099 5.15171623 1.84681133 9.91913204 1 15 C-1.26166232 11.60750652 -1.24515545 10.34798499 -1.1875 6.375 C-1.18105469 5.39273437 -1.17460938 4.41046875 -1.16796875 3.3984375 C-1 1 -1 1 0 0 Z " fill="#8DDF15" transform="translate(1111,387)"/>
<path d="M0 0 C0.99 0 1.98 0 3 0 C2.67 2.64 2.34 5.28 2 8 C0.5629191 8.05422947 -0.87475462 8.09289723 -2.3125 8.125 C-3.11300781 8.14820313 -3.91351562 8.17140625 -4.73828125 8.1953125 C-7 8 -7 8 -10 6 C-8.329375 6.061875 -8.329375 6.061875 -6.625 6.125 C-2.95633975 6.41121859 -2.95633975 6.41121859 -1 4 C-0.3574765 1.93125966 -0.3574765 1.93125966 0 0 Z " fill="#9FE333" transform="translate(732,912)"/>
<path d="M0 0 C0 3.69942045 -0.85819127 4.40155392 -3.25 7.125 C-3.85328125 7.82882813 -4.4565625 8.53265625 -5.078125 9.2578125 C-7.10469267 11.09490433 -8.32969429 11.6100881 -11 12 C-7.49102731 7.81576108 -3.91939465 3.80411834 0 0 Z " fill="#9BDF31" transform="translate(484,241)"/>
<path d="M0 0 C1.98 0 3.96 0 6 0 C6 0.66 6 1.32 6 2 C5.38125 2.45375 4.7625 2.9075 4.125 3.375 C1.60731206 5.05398371 1.60731206 5.05398371 0 9 C0 6.03 0 3.06 0 0 Z " fill="#8ED715" transform="translate(748,748)"/>
<path d="M0 0 C1.25127906 3.54667178 0.72285053 5.72253438 -0.4375 9.25 C-0.72496094 10.14203125 -1.01242187 11.0340625 -1.30859375 11.953125 C-1.53675781 12.62859375 -1.76492188 13.3040625 -2 14 C-2.33 14 -2.66 14 -3 14 C-3.34615998 8.34605369 -2.43425238 4.96993194 0 0 Z " fill="#A3DC44" transform="translate(964,880)"/>
<path d="M0 0 C0.33 0.99 0.66 1.98 1 3 C-0.77444972 5.24606427 -1.58352485 5.95081002 -4.48046875 6.29296875 C-5.82044922 6.24076172 -5.82044922 6.24076172 -7.1875 6.1875 C-8.53908203 6.14689453 -8.53908203 6.14689453 -9.91796875 6.10546875 C-10.60503906 6.07066406 -11.29210937 6.03585937 -12 6 C-12 5.67 -12 5.34 -12 5 C-6.555 4.01 -6.555 4.01 -1 3 C-0.67 2.01 -0.34 1.02 0 0 Z " fill="#A1DF41" transform="translate(977,257)"/>
<path d="M0 0 C0.75 1.75 0.75 1.75 1 4 C-0.625 6.25 -0.625 6.25 -3 8 C-5.75 8.25 -5.75 8.25 -8 8 C-4.25 5 -4.25 5 -2 5 C-1.34 3.35 -0.68 1.7 0 0 Z " fill="#9BDD2E" transform="translate(890,454)"/>
<path d="M0 0 C-2 2 -2 2 -4.3828125 2.1953125 C-5.28773438 2.17210937 -6.19265625 2.14890625 -7.125 2.125 C-8.49011719 2.09792969 -8.49011719 2.09792969 -9.8828125 2.0703125 C-10.58148437 2.04710937 -11.28015625 2.02390625 -12 2 C-7.66032699 -0.21504143 -4.80574417 -1.54470348 0 0 Z " fill="#A2E43A" transform="translate(613,173)"/>
<path d="M0 0 C0.66 0 1.32 0 2 0 C0.55746343 3.36591866 -1.33264727 5.51047079 -4 8 C-4.66 7.67 -5.32 7.34 -6 7 C-5.04882866 5.8274869 -4.08882991 4.66212985 -3.125 3.5 C-2.59132813 2.8503125 -2.05765625 2.200625 -1.5078125 1.53125 C-0.76144531 0.77328125 -0.76144531 0.77328125 0 0 Z " fill="#93DF1F" transform="translate(465,262)"/>
<path d="M0 0 C0.66 0.33 1.32 0.66 2 1 C0.70700306 3.88437779 -0.65941363 5.87219421 -3 8 C-2.25 2.25 -2.25 2.25 0 0 Z " fill="#8ED815" transform="translate(540,329)"/>
<path d="M0 0 C1.37432457 3.81756824 0.67975039 7.07255329 0 11 C-0.33 11 -0.66 11 -1 11 C-1.33 8.03 -1.66 5.06 -2 2 C-1.34 2 -0.68 2 0 2 C0 1.34 0 0.68 0 0 Z " fill="#A8E547" transform="translate(966,868)"/>
<path d="M0 0 C0.66 0.66 1.32 1.32 2 2 C1.64644564 4.26274788 1.02455574 5.95088852 0 8 C-0.66 8 -1.32 8 -2 8 C-1.125 2.25 -1.125 2.25 0 0 Z " fill="#A2E238" transform="translate(746,292)"/>
</svg>
